# xmcd
# Track frame offsets:
# 150
# 17223
# 34340
# 49505
# 65832
# 82880
# 101768
# 122593
# 139420
# 160860
# 179755
# 193117
# 211132
# 225169
# 243829
# 263561
#
# Disc length: 3810 seconds
# Revision: 0
# Processed by: cddbd v1.5.2PL0 Copyright (c) Steve Scherf et al.
# Submitted via: VisiTrax 2.11.0.264 - For more info visit www.synapsa.com
#
DISCID=d90ee010
DTITLE=Female Country 2000 - SC8653
DYEAR=1900
DGENRE=Country
TTITLE0=Loveless, Patty - That's The Kind Of Mood I'm In
TTITLE1=Kinleys,The - She Ain't The Girl For You
TTITLE2=Clark, Terri - A Little Gasoline
TTITLE3=McBride,Martina - There You Are
TTITLE4=Dixie Chicks - Without You
TTITLE5=Yearwood, Trisha - Real Live Woman
TTITLE6=Johnson, Carolyn Dawn - Georgia
TTITLE7=Twain, Shania - I'm Holdin' On To The Love(To Save My Life)
TTITLE8=SheDaisy - Lucky 4 You(Tonight I'm Just Me)
TTITLE9=O'Neal, Jamie - There Is No Arizona
TTITLE10=Leigh, Danni - Honey I Do
TTITLE11=SheDaisy - I Will ...But
TTITLE12=Elliott, Alecia - You Wanna What?
TTITLE13=Evans, Sara - Born To Fly
TTITLE14=Wright, Chely - She Went Out For Cigarettes
TTITLE15=Dixie Chicks - Cold Day In July
EXTD=
EXTT0=
EXTT1=
EXTT2=
EXTT3=
EXTT4=
EXTT5=
EXTT6=
EXTT7=
EXTT8=
EXTT9=
EXTT10=
EXTT11=
EXTT12=
EXTT13=
EXTT14=
EXTT15=
PLAYORDER=
